<?xml version="1.0" standalone="no"?>
<!DOCTYPE svg PUBLIC "-//W3C//DTD SVG 20010904//EN"
 "http://www.w3.org/TR/2001/REC-SVG-20010904/DTD/svg10.dtd">
<svg version="1.0" xmlns="http://www.w3.org/2000/svg"
 width="1040.000000pt" height="1040.000000pt" viewBox="0 0 1040.000000 1040.000000"
 preserveAspectRatio="xMidYMid meet">
<metadata>
Created by potrace 1.11, written by Peter Selinger 2001-2013
</metadata>
<g transform="translate(0.000000,1040.000000) scale(0.100000,-0.100000)"
fill="#000000" stroke="none">
<path d="M5727 9613 c-2 -1 -30 -4 -63 -7 -32 -2 -59 -5 -59 -6 0 0 -25 -3
-55 -5 -30 -2 -68 -6 -85 -9 -16 -4 -49 -9 -71 -12 -23 -2 -53 -7 -65 -10 -13
-3 -37 -7 -54 -10 -16 -3 -48 -10 -70 -16 -22 -5 -48 -12 -57 -14 -10 -2 -27
-6 -38 -9 -11 -3 -28 -7 -37 -9 -62 -14 -79 -20 -90 -29 -7 -5 -13 -7 -13 -3
0 3 -22 -3 -49 -13 -28 -10 -52 -16 -55 -13 -4 3 -6 0 -6 -7 0 -7 -4 -10 -8
-7 -5 3 -21 -1 -35 -9 -15 -8 -30 -14 -32 -15 -36 -5 -175 -64 -175 -73 0 -6
-3 -8 -6 -4 -4 3 -25 -3 -48 -15 -22 -11 -42 -19 -42 -17 -1 2 -10 -4 -20 -13
-11 -9 -22 -17 -27 -17 -23 -2 -199 -99 -205 -113 -2 -5 -8 -6 -13 -2 -5 3 -9
0 -9 -5 0 -6 -6 -11 -13 -11 -7 0 -23 -9 -34 -19 -12 -11 -23 -17 -27 -14 -3
3 -8 -2 -12 -11 -3 -9 -9 -14 -14 -11 -4 2 -16 -5 -28 -15 -12 -11 -26 -20
-32 -20 -6 0 -8 -5 -4 -12 4 -6 3 -8 -3 -5 -12 8 -83 -39 -83 -55 0 -6 -3 -9
-6 -5 -6 6 -17 -1 -55 -35 -10 -10 -22 -19 -26 -20 -5 -2 -7 -7 -5 -11 1 -5
-1 -6 -6 -3 -5 3 -18 -3 -28 -12 -10 -10 -46 -39 -79 -66 -33 -27 -59 -53 -57
-57 1 -5 -4 -9 -10 -9 -16 -1 -104 -80 -100 -92 1 -4 -3 -7 -10 -6 -7 2 -12
-4 -13 -12 -1 -8 -6 -14 -12 -13 -15 3 -219 -215 -215 -230 2 -7 0 -9 -4 -5
-7 8 -17 -2 -64 -63 -14 -17 -33 -39 -42 -48 -10 -8 -18 -21 -18 -28 0 -7 -4
-13 -8 -13 -5 0 -26 -26 -48 -57 -21 -32 -44 -64 -50 -70 -7 -7 -22 -29 -35
-50 -13 -21 -26 -40 -29 -43 -10 -7 -60 -88 -60 -96 0 -4 22 24 49 62 27 38
56 77 65 87 9 9 16 19 16 21 0 2 48 52 107 112 59 60 107 112 105 117 -1 4 2
6 7 5 5 -2 26 13 47 32 21 19 66 57 99 84 33 27 66 56 73 64 6 9 12 12 12 6 1
-5 10 2 20 15 11 13 20 21 20 17 0 -6 29 16 62 47 10 9 18 15 18 12 0 -6 19 8
56 42 13 12 24 20 24 17 0 -5 109 66 128 84 7 6 18 12 23 12 6 0 29 13 52 29
24 16 68 42 100 58 31 16 55 33 52 36 -3 4 -2 5 1 2 8 -5 125 54 135 68 3 5 8
8 10 6 9 -5 79 26 79 35 0 5 3 7 6 3 4 -3 24 3 45 14 22 11 39 17 39 14 0 -3
12 3 27 12 15 10 27 16 28 14 0 -8 45 10 45 19 0 4 6 7 13 7 6 -1 56 13 110
31 53 17 104 32 112 32 8 0 15 4 15 10 0 5 7 7 15 4 8 -3 20 -2 27 2 7 5 22
10 33 12 29 5 50 10 50 12 0 2 25 8 70 15 22 3 47 8 55 10 16 5 35 8 180 30
177 26 561 26 745 -1 17 -2 50 -7 75 -11 25 -4 55 -7 68 -7 12 -1 22 -4 22 -7
0 -3 6 -6 13 -6 21 -1 87 -15 197 -42 25 -7 55 -14 67 -16 12 -3 61 -18 108
-34 47 -16 85 -26 85 -23 0 4 4 1 8 -5 4 -7 17 -14 27 -16 22 -4 38 -10 103
-38 23 -10 42 -16 42 -14 0 3 20 -6 44 -20 24 -13 46 -21 50 -18 3 4 6 1 6 -6
0 -7 4 -10 9 -7 5 3 14 -1 21 -9 7 -8 21 -15 31 -15 11 0 19 -3 19 -7 0 -5 11
-13 25 -20 19 -8 23 -8 18 0 -3 7 2 5 13 -5 10 -9 44 -29 74 -45 30 -16 74
-41 97 -56 24 -15 47 -27 52 -27 5 0 11 -4 13 -8 4 -11 97 -72 109 -72 5 0 9
-7 9 -15 0 -14 12 -19 33 -16 4 0 7 -6 7 -14 0 -8 3 -15 8 -15 4 0 19 -11 34
-24 14 -14 29 -22 32 -19 3 4 6 1 6 -5 0 -14 47 -62 54 -54 3 3 6 -3 6 -13 0
-10 2 -16 5 -13 3 3 27 -15 53 -41 27 -25 84 -77 127 -116 43 -38 97 -88 118
-110 22 -22 44 -39 48 -37 5 1 8 -2 7 -6 -2 -4 11 -21 27 -38 17 -16 55 -58
87 -91 31 -34 59 -58 63 -55 4 4 6 3 5 -3 -5 -22 1 -35 15 -35 8 0 15 -6 15
-12 0 -7 16 -30 35 -51 19 -21 35 -42 35 -48 0 -5 4 -9 9 -9 6 0 18 -13 27
-29 10 -17 22 -27 27 -24 6 3 7 1 4 -4 -4 -6 7 -25 23 -42 17 -17 28 -31 24
-31 -3 0 1 -7 8 -15 29 -32 38 -45 38 -53 0 -5 11 -19 25 -32 13 -12 22 -26
20 -30 -3 -4 4 -15 15 -25 11 -10 20 -25 20 -33 0 -9 3 -12 6 -9 4 4 16 -11
26 -33 11 -22 24 -40 30 -40 5 0 7 -4 4 -9 -3 -5 4 -21 16 -37 23 -29 54 -84
110 -194 18 -36 35 -67 38 -70 5 -5 42 -80 45 -90 1 -3 14 -32 29 -65 16 -33
35 -76 43 -95 8 -19 19 -44 24 -55 12 -27 32 -79 33 -85 1 -3 4 -9 7 -15 3 -5
14 -36 24 -67 11 -32 23 -58 28 -58 4 0 5 -4 2 -10 -3 -5 1 -23 10 -40 8 -16
15 -32 15 -35 0 -3 0 -6 1 -7 0 -2 2 -11 4 -20 2 -10 12 -46 23 -80 11 -35 23
-79 27 -98 4 -19 10 -39 13 -45 3 -5 7 -20 8 -33 2 -14 6 -32 10 -41 4 -9 8
-23 9 -31 2 -8 6 -26 10 -40 3 -14 8 -38 10 -54 2 -15 7 -37 11 -48 3 -11 7
-30 9 -41 8 -64 17 -132 21 -151 2 -11 6 -37 9 -58 3 -21 8 -57 11 -80 15
-104 26 -446 15 -452 -4 -3 -38 -8 -76 -11 -123 -12 -130 -13 -130 -14 0 -1
-22 -4 -50 -6 -27 -3 -68 -7 -90 -10 -22 -4 -53 -8 -70 -9 -16 -2 -30 -5 -30
-6 0 -1 -16 -3 -35 -5 -39 -3 -109 -13 -155 -21 -16 -3 -43 -8 -60 -10 -16 -3
-39 -7 -50 -8 -11 -2 -38 -7 -60 -11 -22 -3 -76 -15 -120 -25 -120 -29 -119
-29 -122 0 -2 14 -4 102 -6 195 -3 113 -8 179 -17 194 -17 33 -71 81 -92 83
-54 5 -79 4 -84 -4 -3 -4 -10 -6 -15 -3 -5 4 -9 1 -9 -5 0 -6 -4 -9 -9 -5 -6
3 -13 0 -18 -7 -4 -7 -26 -27 -48 -44 -43 -33 -36 -32 -195 -19 -136 11 -412
7 -580 -10 -19 -1 -66 -6 -105 -10 -38 -4 -86 -8 -105 -10 -19 -2 -35 -4 -35
-5 0 -1 -16 -3 -35 -5 -19 -2 -48 -6 -65 -9 -16 -3 -57 -8 -90 -12 -33 -3 -69
-8 -80 -10 -25 -5 -94 -16 -120 -19 -11 -1 -20 -3 -20 -4 0 -2 -16 -4 -35 -5
-19 -2 -48 -6 -65 -9 -16 -3 -48 -8 -70 -12 -23 -3 -52 -8 -65 -10 -14 -3 -45
-8 -70 -11 -25 -3 -48 -8 -51 -10 -4 -2 -24 -6 -45 -9 -22 -3 -50 -7 -64 -10
-14 -4 -34 -8 -45 -9 -11 -2 -33 -6 -50 -10 -77 -15 -178 -35 -210 -41 -59
-11 -81 -16 -117 -26 -57 -15 -109 -14 -119 2 -5 8 -9 11 -9 7 0 -4 -15 -1
-33 7 -29 12 -38 11 -76 -6 -38 -17 -55 -31 -88 -74 -12 -15 -17 -53 -18 -123
0 -61 -1 -63 -25 -60 -14 1 -29 5 -35 9 -5 4 -35 10 -65 14 -30 4 -66 9 -80
11 -32 6 -294 6 -340 0 -93 -11 -142 -20 -220 -43 -46 -13 -87 -27 -90 -31 -3
-4 -9 -8 -15 -9 -5 -1 -18 -5 -28 -8 -13 -6 -17 -3 -14 14 2 11 6 23 9 26 3 4
4 21 1 38 -3 18 -6 37 -7 43 -3 20 -57 85 -66 79 -4 -3 -10 0 -12 6 -13 40
-301 46 -620 13 -35 -3 -79 -8 -98 -9 -51 -5 -130 -14 -170 -21 -19 -3 -55 -7
-80 -10 -25 -2 -54 -7 -65 -11 -11 -4 -29 -7 -40 -8 -11 -1 -46 -5 -77 -9 -32
-5 -61 -8 -65 -8 -5 0 -12 -3 -18 -7 -5 -4 -20 -6 -32 -5 -13 0 -23 -3 -23 -8
0 -5 -4 -7 -9 -4 -8 5 -47 -1 -117 -17 -12 -3 -38 -8 -59 -11 -20 -4 -40 -8
-44 -11 -4 -2 -30 -7 -57 -11 -27 -3 -51 -9 -54 -13 -3 -3 -20 -7 -39 -9 -19
-1 -40 -7 -46 -12 -7 -5 -14 -8 -16 -5 -3 2 -22 0 -43 -6 -37 -10 -56 -15
-101 -24 -62 -13 -303 -88 -371 -116 -43 -17 -101 -33 -129 -36 -27 -2 -55 -9
-61 -14 -6 -5 -14 -6 -17 -2 -4 3 -7 -1 -7 -11 0 -9 -4 -14 -10 -11 -5 3 -10
-1 -10 -10 0 -10 -5 -13 -13 -9 -6 4 -9 4 -5 -1 4 -4 3 -14 -2 -20 -17 -20
-21 -84 -10 -144 5 -31 12 -74 15 -96 4 -22 9 -53 12 -70 15 -89 11 -97 -49
-101 -23 -1 -59 -5 -78 -9 -19 -3 -55 -9 -80 -12 -25 -2 -56 -6 -70 -9 -14 -2
-43 -6 -64 -8 -22 -3 -54 -8 -73 -11 -18 -3 -50 -7 -70 -10 -21 -3 -54 -8 -73
-11 -91 -16 -100 -15 -112 14 -5 15 -11 36 -13 47 -1 11 -3 20 -5 20 -1 0 -3
9 -5 20 -2 11 -6 31 -10 45 -3 14 -8 34 -10 45 -2 11 -6 31 -9 45 -9 43 -16
83 -22 130 -3 25 -8 54 -11 65 -4 11 -8 36 -10 55 -2 19 -5 55 -8 80 -5 52
-12 134 -20 240 -11 160 -1 516 19 655 2 17 7 53 10 80 3 28 8 61 11 75 3 14
7 41 9 60 3 19 8 48 12 65 4 16 8 41 10 55 1 14 3 25 4 25 2 0 8 26 15 65 2
14 10 45 16 70 6 25 13 54 14 65 2 11 4 20 5 20 1 0 3 7 5 15 2 8 16 56 30
105 15 50 28 95 30 100 1 6 5 18 9 27 4 9 8 22 10 30 1 7 4 18 7 23 5 8 17 45
24 75 0 3 6 15 13 28 7 12 10 22 6 22 -3 0 -1 7 6 15 7 8 9 15 5 15 -4 0 -2 6
4 13 6 8 8 17 4 20 -3 4 -2 7 4 7 6 0 14 11 17 25 3 13 11 37 18 52 6 15 12
30 13 33 2 9 36 84 51 111 7 14 11 29 7 33 -3 3 -1 6 5 6 7 0 11 3 10 8 -1 4
15 42 36 84 20 43 37 80 36 83 0 3 6 13 15 21 8 9 13 19 10 24 -3 5 -2 10 2
12 9 4 75 134 73 144 -1 4 2 10 7 13 17 11 53 78 46 84 -3 4 -1 7 6 7 7 0 10
4 7 9 -3 5 1 11 9 15 8 3 15 10 15 17 0 6 9 24 21 40 11 16 18 29 15 29 -3 0
1 8 9 18 9 9 48 67 87 127 39 61 87 129 106 153 19 23 31 42 28 42 -4 0 4 10
17 23 13 12 30 32 38 44 17 25 86 106 138 162 65 71 181 189 181 186 0 -3 15
10 32 28 18 17 32 35 30 40 -1 5 1 6 5 4 5 -3 25 9 44 26 20 18 51 43 69 57
19 14 42 33 52 43 10 9 18 15 18 12 0 -3 25 13 55 35 30 22 57 40 59 40 3 0
29 15 58 33 73 45 249 128 303 143 6 1 39 10 75 20 36 9 72 17 80 17 8 0 21 4
28 10 6 5 12 7 12 3 0 -3 24 4 53 15 28 12 61 23 72 25 109 22 101 21 141 22
19 1 31 7 31 17 0 16 -24 28 -38 19 -5 -3 -9 0 -9 5 0 11 -176 9 -270 -3 -25
-3 -76 -8 -115 -11 -77 -6 -106 -10 -187 -31 -13 -3 -30 -7 -38 -9 -8 -2 -16
-4 -17 -5 -2 -2 -6 -3 -10 -4 -44 -9 -103 -31 -103 -38 0 -5 -4 -7 -9 -4 -5 3
-26 -2 -47 -11 -22 -9 -41 -17 -44 -18 -3 -1 -21 -8 -41 -17 -20 -9 -46 -19
-58 -23 -11 -3 -19 -10 -17 -14 3 -4 -5 -8 -16 -8 -11 -1 -28 -9 -37 -17 -9
-8 -20 -15 -26 -16 -23 -4 -85 -41 -85 -51 0 -6 -4 -8 -8 -5 -9 5 -82 -39 -93
-57 -3 -5 -10 -8 -15 -7 -10 2 -107 -65 -141 -97 -13 -12 -23 -20 -23 -16 0 6
-83 -59 -111 -86 -8 -9 -27 -25 -42 -35 -14 -11 -23 -24 -21 -28 3 -5 2 -7 -3
-6 -12 4 -63 -38 -63 -51 0 -6 -6 -10 -12 -8 -7 1 -12 -4 -11 -10 2 -7 -3 -12
-10 -10 -6 1 -11 -4 -10 -10 2 -7 0 -12 -5 -10 -15 5 -234 -228 -337 -358 -16
-21 -36 -44 -43 -51 -6 -7 -12 -15 -12 -19 0 -4 -6 -12 -13 -19 -27 -28 -62
-80 -59 -88 1 -5 -2 -7 -7 -4 -9 6 -26 -22 -23 -36 1 -5 -2 -8 -7 -8 -5 0 -24
-24 -42 -52 -18 -29 -36 -55 -39 -58 -15 -14 -79 -120 -73 -120 5 0 0 -5 -10
-11 -9 -6 -15 -14 -12 -20 4 -5 2 -9 -3 -9 -8 0 -26 -32 -31 -55 -2 -5 -8 -16
-14 -24 -31 -37 -137 -253 -130 -264 3 -6 1 -7 -5 -3 -7 4 -12 1 -12 -9 0 -9
-7 -27 -16 -40 -9 -14 -12 -25 -8 -25 5 0 4 -4 -1 -8 -6 -4 -19 -27 -30 -52
-10 -25 -27 -65 -37 -88 -11 -24 -20 -52 -21 -62 -1 -10 -5 -16 -9 -14 -4 3
-9 -2 -9 -10 -2 -18 -3 -24 -12 -48 -4 -10 -10 -26 -14 -35 -3 -10 -7 -20 -8
-23 -1 -3 -5 -14 -9 -25 -29 -75 -34 -93 -29 -99 4 -3 1 -6 -5 -6 -7 0 -11 -3
-11 -7 1 -5 0 -10 -1 -13 -2 -6 -9 -33 -13 -55 -2 -8 -6 -18 -10 -21 -4 -4 -7
-17 -7 -29 0 -12 -3 -25 -7 -29 -4 -3 -8 -12 -9 -19 -2 -7 -6 -23 -9 -37 -3
-14 -8 -32 -10 -40 -2 -8 -4 -16 -5 -17 -2 -2 -3 -6 -4 -10 -2 -7 -27 -116
-31 -133 0 -3 -4 -14 -8 -25 -3 -11 -9 -32 -12 -47 -8 -44 -15 -76 -21 -105
-3 -16 -7 -37 -8 -48 -2 -11 -7 -42 -11 -70 -5 -27 -10 -58 -11 -67 -1 -10 -2
-19 -4 -20 -1 -2 -3 -12 -4 -23 -29 -210 -39 -368 -39 -635 0 -214 5 -323 18
-435 6 -50 16 -132 19 -165 2 -14 4 -25 6 -25 1 0 3 -16 5 -35 1 -19 6 -48 9
-65 3 -16 9 -46 12 -65 3 -19 7 -43 10 -52 5 -18 13 -53 19 -83 8 -44 16 -82
27 -120 5 -22 11 -47 13 -55 2 -8 9 -35 16 -60 7 -25 12 -48 11 -52 -1 -5 3
-8 9 -8 5 0 7 -5 4 -10 -3 -5 -3 -16 2 -22 4 -7 8 -18 9 -24 5 -34 49 -154 57
-154 4 0 5 -5 2 -10 -4 -6 -1 -17 5 -25 7 -8 9 -15 5 -15 -4 0 -2 -7 5 -15 7
-8 10 -15 7 -15 -4 0 6 -28 22 -62 15 -35 29 -66 29 -71 1 -4 8 -22 16 -40 7
-19 17 -43 20 -55 4 -12 12 -22 17 -22 6 0 8 -4 5 -9 -5 -8 109 -246 132 -273
6 -8 9 -18 5 -21 -3 -4 2 -9 11 -13 9 -3 13 -11 10 -16 -4 -6 -3 -13 2 -17 5
-3 15 -17 22 -31 7 -14 23 -43 37 -65 14 -22 28 -47 32 -55 4 -8 15 -24 25
-34 10 -11 18 -26 18 -33 0 -7 5 -13 10 -13 6 0 10 -7 10 -15 0 -9 7 -18 15
-21 8 -4 13 -9 10 -14 -2 -4 5 -16 15 -28 11 -12 20 -26 20 -32 0 -5 5 -10 10
-10 6 0 10 -7 10 -15 0 -7 8 -19 18 -24 9 -6 13 -11 9 -11 -8 0 1 -13 45 -61
15 -16 25 -29 22 -29 -3 0 12 -21 33 -47 21 -26 45 -56 53 -66 8 -11 25 -30
38 -43 12 -13 22 -25 22 -28 0 -6 49 -63 111 -128 31 -32 55 -58 53 -58 -2 0
7 -11 20 -25 13 -14 28 -25 35 -25 6 0 10 -4 9 -8 -4 -9 79 -92 92 -92 5 0 12
-9 15 -21 4 -11 9 -19 11 -16 3 2 24 -14 48 -37 83 -79 121 -111 128 -108 5 1
8 -2 8 -7 0 -15 202 -171 213 -164 6 3 8 2 5 -3 -3 -5 0 -15 8 -22 8 -7 14
-10 14 -7 0 4 6 0 14 -7 28 -25 124 -90 132 -88 4 1 10 -2 13 -7 12 -18 115
-87 107 -73 -4 8 -1 7 7 -2 8 -10 17 -15 20 -11 4 3 7 1 7 -5 0 -6 12 -17 28
-24 36 -19 76 -42 82 -48 5 -5 29 -18 140 -76 30 -16 58 -33 61 -37 3 -5 9 -9
12 -9 20 0 47 -12 47 -20 0 -6 6 -8 14 -5 8 3 16 2 18 -2 3 -9 149 -79 178
-86 3 0 15 -6 26 -13 12 -6 24 -8 28 -5 3 3 6 1 6 -6 0 -7 4 -9 10 -6 5 3 10
1 10 -4 0 -6 3 -10 8 -9 4 1 18 -4 32 -12 14 -7 25 -12 25 -11 0 1 14 -3 30
-9 17 -7 35 -13 40 -14 6 -1 20 -7 32 -14 12 -7 31 -12 42 -12 11 0 22 -4 25
-9 5 -7 88 -35 108 -36 3 0 10 -3 14 -8 4 -4 17 -7 29 -7 12 0 25 -3 29 -7 3
-4 12 -8 19 -9 7 -1 35 -9 63 -19 28 -9 60 -18 70 -20 10 -2 20 -4 22 -5 1 -2
7 -4 12 -5 6 -1 11 -3 13 -4 1 -2 13 -5 27 -8 41 -8 55 -11 55 -14 0 -1 9 -3
20 -5 26 -4 60 -12 60 -14 0 -1 11 -3 25 -6 14 -2 36 -7 50 -11 14 -3 32 -7
40 -8 8 -1 33 -5 55 -10 22 -5 49 -10 60 -11 11 -1 20 -3 20 -4 0 -3 38 -9 85
-15 25 -3 56 -8 70 -11 69 -12 233 -29 405 -40 172 -12 557 -6 705 11 30 4 75
8 100 11 25 2 59 6 75 8 17 3 51 7 76 11 26 3 58 8 70 11 13 3 38 7 54 9 79
12 132 22 209 41 34 8 72 17 86 19 14 2 40 9 58 14 17 5 32 7 32 4 0 -3 6 -1
13 5 6 6 15 11 20 11 4 1 8 1 10 2 1 0 13 2 27 5 14 2 32 7 40 11 8 3 21 5 28
4 6 -1 12 3 12 9 0 6 5 8 10 5 6 -3 16 -3 23 2 6 4 23 9 37 11 14 2 26 7 28
12 2 5 9 7 17 4 7 -3 16 0 20 5 3 6 10 9 15 6 5 -3 11 -1 15 5 3 5 17 10 31
10 13 0 24 4 24 8 0 5 6 9 13 10 24 2 47 8 53 15 4 4 16 7 26 7 10 0 18 5 18
12 0 6 3 8 6 5 4 -3 16 -1 28 5 11 7 30 13 40 15 11 2 39 14 63 28 24 13 41
19 37 13 -4 -5 14 1 39 15 25 14 48 23 51 20 3 -4 6 -1 6 6 0 7 4 10 8 7 5 -3
22 3 38 13 16 10 41 21 57 24 15 4 27 12 27 17 0 6 6 10 13 10 17 0 190 89
198 102 3 5 8 9 10 8 7 -3 59 23 59 30 0 4 6 7 13 7 12 0 138 72 147 84 3 3
15 9 28 13 12 4 22 12 22 17 0 5 5 9 11 9 7 0 18 8 26 18 8 9 11 10 7 2 -5 -8
10 -1 31 16 22 16 63 44 90 62 28 17 61 41 75 54 13 13 27 23 30 23 12 1 90
58 90 67 0 5 5 6 10 3 6 -3 10 -2 10 4 0 5 9 13 20 16 11 4 18 11 15 16 -4 5
1 9 9 9 9 0 16 5 16 11 0 5 3 8 8 6 10 -7 32 19 24 29 -4 4 -2 4 4 1 7 -4 26
7 44 23 18 17 33 30 35 30 4 0 69 56 106 92 15 14 30 23 33 20 3 -3 6 3 6 13
0 10 3 16 6 12 9 -9 239 213 374 363 41 45 85 93 98 106 13 13 19 24 15 24 -4
0 3 7 15 16 12 8 20 20 16 25 -3 5 -1 8 4 7 6 -2 10 1 10 5 1 5 7 14 15 20 27
23 138 167 223 292 26 39 53 73 58 77 6 4 7 8 3 8 -4 0 4 16 19 35 14 19 22
35 18 35 -5 0 -1 5 9 11 9 5 17 17 17 24 0 8 3 15 8 15 4 0 13 9 20 21 11 17
11 20 0 14 -7 -3 -5 0 4 7 9 8 18 21 20 28 3 14 7 21 36 55 7 8 10 20 6 27 -4
6 -3 8 3 5 10 -6 27 27 24 46 -1 4 3 7 9 7 5 0 10 5 10 10 0 6 11 28 25 50 14
22 22 40 19 40 -4 0 0 8 9 18 8 9 17 22 18 27 1 6 17 41 35 80 18 38 30 73 27
79 -3 5 -1 6 5 2 7 -4 12 -1 12 8 0 27 1 31 16 47 8 9 11 18 8 22 -4 3 1 13
10 22 9 9 14 20 11 25 -3 5 -1 11 5 15 6 4 8 11 5 16 -4 5 -2 9 4 9 5 0 12 14
16 31 4 17 13 42 21 57 8 15 14 35 14 44 0 9 5 20 11 23 6 4 8 13 5 21 -3 8
-1 14 4 14 6 0 9 3 8 8 -1 4 5 30 14 57 15 45 40 132 42 145 1 3 5 11 10 18 4
7 5 16 2 19 -3 3 -1 12 5 20 6 7 8 13 4 13 -4 0 -2 7 5 15 7 8 10 15 7 15 -3
0 -1 16 5 36 5 20 12 45 14 55 2 11 6 29 9 42 3 12 7 33 10 47 10 52 14 72 19
88 5 17 16 88 21 132 2 14 4 25 5 25 1 0 3 11 5 25 2 14 6 48 10 75 4 28 8 68
10 90 2 22 7 76 11 120 10 103 10 589 0 680 -4 39 -9 90 -11 115 -2 25 -6 59
-9 75 -3 17 -7 53 -10 80 -3 28 -8 61 -11 75 -3 14 -8 36 -10 50 -7 42 -17
105 -30 175 -4 22 -8 46 -8 53 0 6 -3 12 -7 12 -3 0 -6 8 -7 18 -3 31 -11 71
-18 82 -6 10 -13 42 -17 78 -1 6 -5 12 -10 12 -5 0 -7 4 -4 9 3 5 -4 40 -15
78 -12 37 -23 75 -24 83 -2 8 -4 15 -5 15 -1 0 -3 8 -6 18 -7 28 -11 41 -17
57 -4 8 -14 38 -23 65 -9 28 -21 61 -27 75 -6 14 -11 27 -12 30 -19 64 -30 96
-36 100 -4 3 -9 14 -11 25 -1 11 -7 23 -11 26 -5 3 -10 15 -12 25 -2 10 -4 20
-5 22 -2 1 -3 5 -5 10 -4 15 -20 50 -71 159 -29 62 -55 121 -59 132 -3 12 -11
21 -16 21 -5 0 -9 9 -9 20 0 11 -9 29 -20 40 -11 11 -19 21 -18 23 4 6 -37 83
-49 90 -6 4 -10 14 -7 22 4 8 1 15 -5 15 -6 0 -10 4 -8 9 1 5 -7 17 -18 26
-11 9 -14 13 -6 9 8 -4 3 8 -12 28 -15 19 -27 39 -27 45 0 5 -13 27 -30 49
-16 21 -30 44 -30 50 0 6 -9 19 -20 29 -11 10 -20 24 -20 32 0 7 -4 13 -10 13
-5 0 -10 7 -10 15 0 9 -7 18 -15 21 -8 4 -15 10 -15 14 0 18 -98 154 -152 211
-14 15 -23 30 -20 33 3 3 0 6 -6 6 -7 0 -12 6 -12 13 0 7 -8 19 -17 28 -10 8
-38 39 -63 68 -103 123 -207 231 -214 224 -3 -4 -6 -1 -6 6 0 16 -26 42 -34
34 -3 -4 -6 -1 -6 5 0 13 -30 43 -110 112 -60 51 -107 92 -132 114 -10 9 -18
13 -18 9 0 -4 -6 0 -12 8 -7 9 -49 45 -93 80 -44 35 -81 67 -83 71 -2 5 -10 8
-17 8 -7 0 -15 4 -17 8 -5 13 -153 122 -166 122 -5 0 -12 4 -14 8 -4 11 -81
57 -90 54 -5 -1 -8 2 -8 7 0 5 -18 18 -40 30 -22 11 -40 18 -40 14 0 -4 -7 2
-16 13 -8 10 -12 12 -8 4 6 -11 2 -10 -13 3 -11 9 -25 17 -31 17 -7 0 -12 5
-12 11 0 6 -6 9 -12 6 -7 -2 -20 1 -28 8 -8 6 -40 22 -70 34 -65 26 -82 33
-133 56 -21 9 -47 17 -57 18 -11 1 -20 4 -20 8 0 4 -12 10 -27 15 -33 9 -33 9
-53 17 -35 13 -95 30 -96 26 0 -2 -8 2 -18 10 -9 8 -19 11 -23 8 -3 -4 -12 -2
-20 4 -7 6 -13 8 -13 4 0 -4 -6 -2 -13 4 -8 6 -31 13 -53 17 -21 3 -47 10 -56
15 -10 5 -18 7 -18 5 0 -3 -10 -2 -23 3 -13 5 -39 12 -58 15 -19 3 -49 10 -68
15 -18 6 -36 10 -40 9 -3 -1 -22 2 -41 5 -47 9 -108 18 -145 22 -16 2 -50 6
-75 10 -104 13 -175 17 -363 19 -108 1 -199 1 -200 -1z m1898 -4397 c28 -4 59
-8 70 -10 11 -3 27 -5 36 -5 32 -2 50 -26 54 -76 2 -28 7 -81 10 -120 3 -38 8
-99 10 -135 2 -36 7 -87 10 -115 3 -27 7 -75 10 -105 15 -184 32 -363 41 -416
3 -18 6 -50 8 -71 3 -36 1 -38 -28 -40 -56 -3 -170 -11 -241 -17 -142 -13
-161 -15 -210 -20 -27 -4 -75 -9 -105 -11 -30 -3 -68 -7 -85 -10 -16 -2 -55
-7 -85 -10 -30 -3 -64 -8 -75 -12 -11 -3 -36 -7 -55 -9 -19 -1 -48 -5 -65 -7
-55 -8 -111 -17 -130 -21 -11 -2 -40 -7 -65 -10 -25 -3 -56 -8 -70 -11 -14 -3
-45 -8 -70 -11 -24 -3 -47 -7 -50 -9 -4 -2 -29 -7 -56 -11 -27 -3 -52 -8 -55
-10 -4 -2 -27 -6 -50 -9 -24 -3 -51 -8 -59 -10 -8 -2 -31 -7 -50 -11 -39 -7
-63 -12 -70 -14 -7 -3 -19 -5 -77 -14 -29 -5 -53 -12 -53 -15 0 -4 -10 -7 -22
-7 -13 0 -59 -8 -103 -19 -101 -24 -95 -22 -97 -24 -2 -2 -14 -4 -28 -6 -33
-6 -65 -13 -65 -15 0 -2 -37 -9 -62 -12 -7 -1 -13 -4 -13 -7 0 -8 -70 -11 -71
-3 0 4 -2 14 -4 22 -7 29 -24 107 -30 140 -3 14 -7 36 -10 50 -14 65 -37 191
-41 225 -2 17 -5 44 -8 60 -10 59 -16 101 -22 145 -3 25 -8 57 -10 73 -10 64
-12 85 -19 137 -3 30 -8 69 -10 85 -14 109 -23 217 -18 230 2 6 12 11 22 12
11 1 75 13 143 27 123 26 147 31 203 42 43 8 60 12 60 14 0 1 16 3 35 5 19 3
46 7 60 10 14 3 43 8 65 11 22 4 47 10 56 15 9 4 18 6 21 4 3 -3 27 0 54 5 27
6 67 12 89 15 22 3 51 7 65 10 14 4 45 8 69 10 24 3 51 7 60 9 9 3 39 8 66 11
28 4 64 9 80 12 17 3 41 6 55 8 44 5 134 17 160 20 14 2 54 6 90 9 36 4 76 8
90 11 14 3 79 8 145 11 66 3 121 6 122 8 5 5 327 -2 378 -8z m1488 -307 c-2
-61 -9 -129 -19 -174 -4 -16 -8 -43 -10 -60 -1 -16 -10 -62 -18 -101 -9 -39
-18 -82 -20 -95 -3 -13 -5 -24 -6 -24 -1 0 -3 -11 -5 -25 -6 -32 -13 -64 -15
-67 -3 -3 -4 -7 -14 -48 -4 -16 -17 -59 -29 -95 -12 -36 -22 -68 -23 -72 -1
-5 -3 -10 -4 -13 -1 -3 -4 -9 -5 -15 -1 -5 -4 -12 -5 -15 -1 -3 -4 -9 -5 -15
-1 -5 -4 -12 -5 -15 -1 -3 -3 -8 -4 -12 -4 -20 -41 -109 -49 -120 -5 -7 -7
-13 -3 -13 4 0 -3 -19 -15 -42 -12 -24 -21 -44 -20 -45 0 -2 -14 -33 -32 -70
-17 -38 -32 -73 -32 -78 0 -6 -8 -21 -18 -35 -9 -13 -17 -30 -17 -37 0 -7 -4
-13 -9 -13 -5 0 -12 -12 -16 -27 -3 -16 -12 -35 -20 -43 -7 -8 -28 -43 -46
-78 -44 -81 -48 -88 -86 -144 -18 -26 -33 -50 -33 -55 0 -4 -14 -24 -30 -43
-16 -19 -30 -38 -30 -42 0 -7 -44 -69 -93 -130 -12 -15 -35 -46 -52 -68 -16
-23 -47 -60 -67 -83 -21 -23 -38 -48 -38 -55 0 -7 -4 -11 -8 -8 -5 3 -17 -7
-28 -22 -10 -14 -27 -33 -36 -41 -9 -8 -15 -18 -12 -23 3 -4 1 -8 -4 -8 -6 0
-41 -32 -78 -71 -60 -62 -128 -129 -223 -219 -15 -14 -54 -47 -86 -75 -33 -27
-66 -56 -73 -63 -8 -7 -30 -25 -50 -40 -21 -15 -42 -31 -48 -37 -32 -28 -64
-53 -104 -80 -48 -32 -73 -51 -100 -75 -9 -8 -23 -16 -31 -18 -8 -2 -15 -8
-17 -13 -2 -5 -10 -9 -18 -9 -8 0 -14 -4 -14 -10 0 -5 -7 -10 -16 -10 -9 0
-12 -5 -8 -12 4 -6 3 -8 -4 -4 -6 3 -16 0 -24 -7 -7 -7 -34 -26 -60 -41 -27
-15 -48 -33 -48 -39 0 -6 -3 -7 -6 -4 -8 8 -64 -24 -64 -36 0 -4 -4 -6 -9 -2
-5 3 -16 -1 -24 -9 -8 -8 -17 -12 -21 -9 -3 4 -6 1 -6 -6 0 -7 -4 -10 -9 -7
-5 3 -14 -1 -21 -9 -7 -8 -16 -15 -20 -15 -5 0 -36 -16 -69 -34 -34 -19 -61
-32 -61 -29 0 4 -7 -2 -16 -13 -8 -10 -12 -12 -8 -5 5 9 -5 6 -23 -7 -17 -12
-38 -22 -47 -22 -9 0 -19 -7 -22 -15 -4 -8 -10 -13 -14 -10 -5 3 -25 -4 -44
-15 -20 -11 -36 -17 -36 -14 0 3 -12 -2 -27 -10 -35 -20 -86 -40 -95 -38 -5 1
-8 -3 -8 -9 0 -5 -4 -8 -8 -5 -5 3 -20 -1 -34 -8 -14 -8 -43 -19 -65 -26 -21
-7 -44 -17 -50 -23 -7 -5 -13 -6 -13 -3 0 4 -9 2 -21 -4 -11 -7 -33 -14 -47
-16 -15 -3 -29 -8 -32 -12 -3 -4 -16 -9 -30 -10 -14 -2 -30 -8 -36 -13 -6 -5
-14 -6 -17 -2 -4 3 -13 0 -22 -7 -8 -7 -15 -9 -15 -4 0 4 -5 3 -11 -3 -6 -6
-18 -9 -25 -6 -8 3 -14 1 -14 -3 0 -5 -14 -10 -31 -11 -17 -1 -37 -7 -44 -13
-6 -5 -14 -7 -17 -5 -3 3 -18 1 -34 -6 -16 -6 -40 -12 -54 -14 -14 -2 -54 -10
-90 -19 -66 -15 -111 -23 -165 -31 -16 -2 -46 -7 -65 -10 -19 -3 -53 -8 -75
-10 -22 -3 -56 -8 -75 -10 -227 -30 -745 -30 -930 0 -14 2 -50 7 -80 10 -76 8
-118 15 -190 30 -14 3 -38 8 -55 10 -16 3 -41 7 -55 10 -14 3 -38 8 -55 11
-16 4 -38 7 -47 8 -10 0 -18 4 -18 9 0 4 -4 6 -8 3 -5 -3 -30 1 -55 9 -26 8
-47 12 -47 10 0 -2 -16 3 -35 11 -19 8 -35 12 -35 10 0 -3 -15 1 -32 9 -18 7
-37 14 -43 15 -15 4 -24 6 -107 33 -43 14 -78 23 -78 19 0 -4 -4 -1 -8 5 -4 7
-18 14 -30 16 -12 2 -25 6 -28 10 -4 4 -13 7 -19 7 -7 0 -34 10 -61 22 -27 12
-52 23 -56 24 -5 1 -10 3 -13 4 -3 1 -8 3 -12 4 -11 3 -70 30 -223 104 -74 36
-139 66 -143 66 -4 1 -11 6 -15 11 -9 12 -79 49 -84 44 -2 -2 -14 6 -28 18
-13 13 -27 23 -32 23 -4 0 -10 0 -13 0 -3 0 -14 9 -25 20 -12 12 -24 19 -29
16 -4 -3 -13 4 -21 14 -8 10 -17 17 -22 14 -4 -3 -8 0 -8 7 0 7 -3 10 -6 6 -3
-3 -18 5 -32 19 -15 13 -32 24 -39 24 -7 0 -13 5 -13 11 0 5 -4 7 -10 4 -6 -3
-10 -1 -10 5 0 6 -8 14 -17 17 -9 4 -24 12 -33 19 -8 7 -35 29 -58 48 -24 20
-47 36 -50 36 -4 0 -25 16 -46 35 -22 19 -44 31 -50 28 -6 -3 -8 -3 -4 2 4 4
-7 19 -25 34 -18 14 -47 40 -66 56 -18 17 -39 29 -45 27 -6 -2 -8 -1 -4 3 4 4
-9 21 -28 38 -77 70 -215 210 -225 228 -5 11 -15 17 -22 13 -7 -4 -9 -4 -5 0
7 8 -13 34 -79 102 -24 24 -43 46 -43 50 0 14 -48 63 -55 56 -5 -4 -5 -2 -2 4
3 6 -1 20 -11 30 -26 30 -74 94 -107 144 -17 25 -33 47 -36 50 -3 3 -14 21
-25 40 -10 19 -21 37 -24 40 -15 15 -48 68 -54 88 -5 13 -12 20 -19 16 -7 -4
-9 -4 -5 0 3 4 -7 30 -23 57 -16 28 -29 54 -29 59 0 6 -5 10 -11 10 -5 0 -7 5
-4 10 3 5 1 10 -4 10 -6 0 -10 3 -9 8 3 9 -32 75 -44 83 -5 3 -9 10 -8 15 1 5
-17 47 -38 94 -64 138 -84 183 -88 203 -2 10 -8 25 -15 33 -6 8 -8 14 -4 14 4
0 2 6 -4 13 -6 8 -8 17 -4 20 3 4 2 7 -4 7 -5 0 -10 6 -11 13 -1 6 -4 24 -7
38 -5 18 -3 26 7 26 7 0 36 3 63 7 28 4 63 9 78 11 48 7 111 16 137 20 14 3
45 7 70 10 25 3 56 7 70 9 14 2 50 7 80 10 30 4 67 9 81 11 24 4 27 1 33 -38
12 -79 21 -139 31 -214 3 -21 7 -49 10 -63 12 -59 16 -77 20 -105 6 -41 23
-135 30 -165 3 -14 7 -38 10 -55 10 -68 25 -137 35 -155 6 -11 8 -20 5 -20
-10 0 25 -59 51 -85 15 -15 38 -31 53 -37 29 -12 101 -18 101 -8 0 4 6 7 14 7
8 0 29 7 48 16 35 17 88 39 101 42 4 2 9 4 12 5 3 1 8 3 13 4 39 11 99 29 121
38 14 6 35 12 47 13 11 2 40 9 65 16 24 7 51 13 59 14 8 2 56 12 105 23 50 12
106 24 125 27 57 9 143 25 170 30 14 3 39 7 55 9 17 3 44 7 60 10 17 3 48 7
70 11 23 3 50 7 61 9 12 2 45 7 75 11 30 4 65 9 79 11 14 2 45 6 70 9 56 8 89
12 165 19 33 4 80 9 105 12 25 3 74 7 110 10 36 3 88 7 115 9 28 2 100 7 160
10 126 8 168 12 175 15 3 1 8 2 13 1 4 0 7 4 7 10 0 5 5 7 10 4 6 -3 10 -1 10
4 0 6 7 11 16 11 8 0 12 5 9 10 -3 6 -1 10 5 10 14 0 39 59 41 97 2 39 -10 97
-22 101 -5 2 -7 8 -4 13 3 5 -1 29 -10 55 -8 25 -16 57 -17 70 -1 13 -5 24 -8
24 -3 0 -5 10 -6 23 0 12 -4 38 -8 57 -3 19 -11 58 -16 85 -9 47 -17 97 -25
155 -2 14 -4 25 -5 25 0 0 -3 16 -5 35 -2 19 -6 49 -10 65 -3 17 -8 48 -10 70
-2 22 -7 63 -10 90 -4 28 -7 52 -7 55 -1 23 5 30 21 30 11 0 32 5 48 12 15 6
32 10 36 9 5 -1 6 3 2 9 -3 5 0 13 8 16 9 3 18 16 21 29 7 28 58 69 101 80 40
11 36 10 75 18 19 4 46 10 60 13 43 10 301 11 349 2 25 -5 57 -11 71 -13 14
-2 26 -4 28 -4 1 -1 4 0 5 2 2 1 11 -4 20 -12 10 -7 17 -10 17 -6 0 4 7 2 15
-5 8 -7 15 -9 15 -6 0 12 87 -73 88 -87 1 -6 3 -28 6 -47 2 -19 7 -60 10 -90
4 -30 9 -67 11 -82 3 -16 7 -41 10 -56 3 -16 7 -44 10 -63 2 -19 9 -61 15 -94
5 -33 12 -76 14 -95 3 -19 12 -69 21 -110 9 -41 18 -88 21 -105 5 -32 7 -43
18 -90 23 -97 30 -121 37 -131 5 -6 6 -13 4 -16 -3 -3 0 -18 6 -34 7 -16 13
-34 15 -41 1 -6 11 -22 23 -34 12 -13 21 -26 21 -30 0 -4 21 -17 46 -28 50
-24 109 -24 195 -1 24 7 51 13 59 15 8 2 33 8 55 14 22 6 51 12 65 15 14 2 26
5 28 7 3 2 4 2 85 18 37 7 70 17 73 22 3 5 9 7 14 4 5 -3 29 -1 52 6 24 6 54
13 68 15 14 3 32 7 40 11 8 3 24 7 35 8 33 4 100 17 105 20 3 2 26 6 50 10 25
3 65 11 90 17 25 5 61 12 80 14 19 3 46 7 60 9 26 5 258 42 320 51 19 3 42 7
50 9 8 3 35 7 60 10 25 2 61 7 80 10 19 3 58 8 85 10 28 3 66 8 85 11 19 2 58
7 85 10 28 2 68 7 90 9 46 5 144 14 225 20 82 6 209 16 260 21 25 2 53 5 64 5
25 0 106 39 106 51 0 5 3 7 8 5 4 -3 16 7 26 21 11 14 15 22 9 19 -6 -4 -3 8
6 27 18 35 20 97 6 191 -10 66 -14 100 -20 160 -3 28 -8 70 -10 95 -8 79 -15
143 -20 200 -15 178 -15 177 2 191 9 8 18 13 20 11 6 -5 73 10 73 17 0 4 10 8
23 8 21 1 62 10 62 13 0 1 9 3 20 5 56 8 103 16 130 22 17 4 39 8 50 9 11 1
40 6 65 10 25 4 56 8 70 9 14 2 25 4 25 5 0 2 26 6 107 14 37 4 77 9 90 12 13
3 46 7 73 9 98 9 126 13 131 17 2 3 14 4 26 3 21 -2 23 -6 21 -56z m-5257 -28
c1 -9 4 -45 7 -81 4 -36 9 -94 12 -130 3 -36 7 -81 10 -100 2 -19 6 -57 9 -85
3 -27 8 -67 11 -88 4 -21 8 -53 10 -70 4 -39 15 -113 21 -147 2 -14 6 -41 9
-60 10 -65 14 -85 15 -85 3 0 7 -27 14 -84 4 -29 9 -57 11 -62 3 -4 7 -20 9
-36 6 -39 16 -86 21 -100 2 -7 -3 -13 -13 -14 -20 -1 -54 -4 -172 -14 -47 -3
-105 -8 -130 -10 -77 -5 -184 -16 -212 -21 -15 -2 -47 -6 -70 -9 -45 -4 -97
-11 -163 -22 -57 -9 -64 -10 -129 -17 -32 -4 -62 -8 -66 -11 -3 -2 -29 -7 -57
-10 -27 -3 -60 -8 -74 -11 -30 -6 -53 -11 -107 -19 -57 -9 -77 -13 -77 -15 0
-1 -11 -4 -25 -5 -70 -10 -101 -16 -123 -24 -14 -6 -28 -7 -31 -4 -3 3 -12 1
-19 -5 -8 -7 -17 -9 -20 -5 -4 3 -12 1 -19 -4 -7 -6 -21 -9 -30 -8 -10 2 -18
-1 -18 -6 0 -6 -4 -8 -8 -5 -8 5 -59 -6 -102 -22 -8 -3 -19 -6 -25 -7 -5 -1
-13 -3 -17 -5 -12 -4 -20 -6 -61 -14 -20 -5 -40 -12 -43 -17 -3 -5 -10 -7 -15
-4 -5 4 -9 2 -9 -2 0 -5 -8 -9 -17 -9 -10 -1 -25 -4 -34 -8 -18 -8 -23 4 -35
80 -3 21 -8 43 -11 47 -3 5 -6 26 -8 47 -2 22 -6 52 -9 67 -3 15 -8 42 -11 58
-3 17 -7 41 -10 55 -5 27 -15 91 -20 130 -2 14 -6 43 -10 65 -4 22 -8 54 -10
70 -2 17 -6 53 -10 80 -11 78 -12 86 -20 150 -3 33 -9 71 -12 85 -13 63 -11
141 3 147 8 3 14 11 14 19 0 8 5 14 11 14 5 0 8 4 5 9 -5 7 7 17 34 26 3 1 12
4 20 8 38 15 125 41 247 73 136 36 158 41 203 50 14 2 32 7 40 10 8 3 26 7 40
10 14 2 34 5 45 8 28 7 213 44 255 52 45 8 65 12 65 14 0 1 20 3 45 6 46 4 85
11 85 14 0 1 14 3 30 5 17 2 46 6 65 9 19 3 53 7 75 10 22 3 54 7 70 10 17 3
55 8 85 11 30 3 71 7 90 10 19 3 70 7 114 10 43 2 80 6 82 7 1 2 40 3 86 4 69
0 84 -2 84 -15z"/>
</g>
</svg>
